<svg xmlns="http://www.w3.org/2000/svg" version="1.1" xmlns:xlink="http://www.w3.org/1999/xlink" xmlns:svgjs="http://svgjs.dev/svgjs" width="1000" height="623" viewBox="0 0 1000 623"><g transform="matrix(1,0,0,1,-0.6060543273906092,0.2522267206477409)"><svg viewBox="0 0 396 247" data-background-color="#ffffff" preserveAspectRatio="xMidYMid meet" height="623" width="1000" xmlns="http://www.w3.org/2000/svg" xmlns:xlink="http://www.w3.org/1999/xlink"><g id="tight-bounds" transform="matrix(1,0,0,1,0.23999753792747924,-0.09999999999999432)"><svg viewBox="0 0 395.52 247.2" height="247.2" width="395.52"><g><svg></svg></g><g><svg viewBox="0 0 395.52 247.2" height="247.2" width="395.52"><g><g><path xmlns="http://www.w3.org/2000/svg" d="M28.401 30.001c16.324-12.126 37.895-18.189 64.712-18.19 14.186 0 26.915 1.399 38.186 4.198 11.271 2.837 20.21 6.393 26.818 10.668 6.607 4.275 12.146 9.231 16.615 14.867 5.048 6.642 8.343 13.802 9.886 21.479l-42.68 0c-2.506-4.685-6.344-8.93-11.514-12.734-11.077-7.968-26.235-11.951-45.473-11.952-12.632 0-24.972 3.245-37.02 9.736-7.598 4.118-12.8 9.101-15.607 14.95l-26.959 0c3.006-12.81 10.684-23.817 23.036-33.022zM176.481 219.065c-14.963 10.883-33.172 16.324-54.627 16.324-21.493 0-36.126-2.818-43.899-8.454l9.036-24.485c8.551 4.47 18.52 6.704 29.908 6.704 11.349 0 20.619-3.362 27.809-10.086 4.439-4.127 7.507-9.09 9.206-14.891l44.206 0c-2.298 14.438-9.511 26.067-21.639 34.888zM69.21 221.863c-8.939 8.628-19.433 12.942-31.481 12.943-12.049 0-21.182-3.109-27.401-9.328-6.219-6.219-9.328-14.186-9.328-23.903 0-6.035 1.205-11.834 3.614-17.398h23.767c-3.873 4.598-5.81 9.134-5.81 13.609 0 6.996 3.304 10.494 9.911 10.494 2.721 0 5.577-1.807 8.57-5.422 3.032-3.576 5.13-9.25 6.296-17.024l0.24-1.657h38.589c-3.335 17.39-8.99 29.952-16.967 37.686zM63.963 59.325c7.968-5.053 17.198-7.579 27.692-7.579 4.858 0 9.522 0.486 13.992 1.458l-1.449 9.819-40.734 0c0.203-1.557 0.37-2.79 0.499-3.698zM293.954 235.389c-30.121 0-52.217-7.676-66.286-23.028-7.393-8.044-12.849-17.439-16.368-28.184l47.911 0c0.658 1.351 1.356 2.681 2.095 3.989 3.498 6.219 8.706 11.174 15.624 14.867 6.879 3.692 14.983 5.538 24.311 5.538 15.935 0 31.287-5.111 46.057-15.333 4.056-2.796 7.935-5.817 11.639-9.061l26.994 0c-9.814 13.049-21.331 24.135-34.552 33.256-17.295 11.971-36.437 17.956-57.425 17.956zM258.1 31.75c17.101-13.292 35.621-19.938 55.559-19.939 19.899 0 35.543 4.8 46.931 14.4 10.888 9.248 16.553 21.518 16.995 36.812l-25.859 0c-0.774-7.075-3.455-12.874-8.043-17.398-5.558-5.441-13.389-8.162-23.495-8.162-13.214 0-25.205 5.344-35.97 16.032-2.985 2.953-5.774 6.129-8.365 9.528h-46.127c7.604-12.031 17.062-22.456 28.374-31.273z" fill="#000000" fill-rule="nonzero" stroke="none" stroke-width="1" stroke-linecap="butt" stroke-linejoin="miter" stroke-miterlimit="10" stroke-dasharray="" stroke-dashoffset="0" font-family="none" font-weight="none" font-size="none" text-anchor="none" style="mix-blend-mode: normal" data-fill-palette-color="tertiary"></path></g></g><g transform="matrix(1,0,0,1,0,72.27816085025745)"><svg viewBox="0 0 395.52 102.64367829948507" height="102.64367829948507" width="395.52"><g><svg viewBox="0 0 395.52000000000004 102.64367829948509" height="102.64367829948507" width="395.52"><g transform="matrix(1,0,0,1,0,63.437911049227615)"><svg viewBox="0 0 395.52000000000004 39.20576725025747" height="39.20576725025747" width="395.52000000000004"><g id="textblocktransform"><svg viewBox="0 0 395.52000000000004 39.20576725025747" height="39.20576725025747" width="395.52000000000004" id="textblock"><g><svg viewBox="0 0 395.52000000000004 39.20576725025747" height="39.20576725025747" width="395.52000000000004"><g transform="matrix(1,0,0,1,0,0)"><svg width="395.52000000000004" viewBox="1.600000023841858 -38.150001525878906 388.3699951171875 38.5" height="39.20576725025747" data-palette-color="#1c4b82"><path d="M2.1-27.05L2.1-27.05Q2.1-31.8 6.3-34.93 10.5-38.05 17.4-38.05L17.4-38.05Q21.05-38.05 23.95-37.33 26.85-36.6 28.55-35.5 30.25-34.4 31.4-32.95L31.4-32.95Q33.3-30.45 33.27-27.38 33.25-24.3 30.85-21.9 28.45-19.5 25.05-19.4L25.05-19.4Q29.3-19.1 32.43-16.6 35.55-14.1 35.55-10.3L35.55-10.3Q35.55-5.3 31.7-2.5 27.85 0.3 22.33 0.3 16.8 0.3 14.8-1.15L14.8-1.15 16.35-5.35Q18.55-4.2 21.48-4.2 24.4-4.2 26.25-5.93 28.1-7.65 28.1-10.5 28.1-13.35 25.58-15.3 23.05-17.25 18.7-17.25L18.7-17.25 19.15-20.95Q22.15-20.95 24.23-22.38 26.3-23.8 26.38-26.65 26.45-29.5 23.8-31.45L23.8-31.45Q20.95-33.5 16-33.5L16-33.5Q12.75-33.5 9.65-31.83 6.55-30.15 6.55-27.35L6.55-27.35Q6.55-26 7.65-25.08 8.75-24.15 10.55-23.95L10.55-23.95 10-20.25Q6.2-20.4 4.15-22.4 2.1-24.4 2.1-27.05ZM16.4-9.6Q15.6-4.25 13.3-2.02 11 0.2 7.9 0.2 4.8 0.2 3.2-1.4 1.6-3 1.6-5.5L1.6-5.5Q1.6-11.4 10.55-15.55L10.55-15.55Q10.8-17.65 11.28-21.23 11.75-24.8 12.03-27 12.3-29.2 12.4-29.9L12.4-29.9Q14.45-31.2 17.15-31.2L17.15-31.2Q18.4-31.2 19.55-30.95L19.55-30.95 16.4-9.6ZM5.3-6.15L5.3-6.15Q5.3-4.35 7-4.35L7-4.35Q7.7-4.35 8.47-5.28 9.25-6.2 9.55-8.2L9.55-8.2 10-11.3Q5.3-8.65 5.3-6.15ZM80.5-23.1L81.6-20.1Q80.45-18.85 77.8-17.88 75.15-16.9 73.57-16.9 72-16.9 71.25-17L71.25-17Q70-9.6 64.87-4.65 59.75 0.3 52.97 0.3 46.2 0.3 42.77-3.9 39.35-8.1 39.35-14.85L39.35-14.85Q39.35-19.25 40.7-23.43 42.05-27.6 44.42-30.85 46.8-34.1 50.4-36.08 54-38.05 57.92-38.05 61.85-38.05 64.37-36.27 66.9-34.5 66.9-31.35L66.9-31.35Q66.9-28.95 65.22-27.08 63.55-25.2 60.6-25.2L60.6-25.2Q59.05-25.2 57.85-25.98 56.65-26.75 56.65-28.45L56.65-28.45Q56.65-29.25 57.05-29.85 57.45-30.45 57.85-30.6L57.85-30.6 58.3-30.8Q58.3-28.8 59.9-28.8L59.9-28.8Q60.65-28.8 61.2-29.33 61.75-29.85 61.8-30.5 61.85-31.15 61.75-31.53 61.65-31.9 61.35-32.4L61.35-32.4Q60.65-33.65 58.4-33.65L58.4-33.65Q55.45-33.65 52.8-30.85 50.15-28.05 48.57-23.65 47-19.25 47-14.65L47-14.65Q47-10.8 48.25-7.8L48.25-7.8Q48.95-6.2 50.3-5.28 51.65-4.35 53.55-4.35L53.55-4.35Q56.7-4.35 59.17-7 61.65-9.65 62.82-13.4 64-17.15 64-21L64-21 64-21.6Q63.85-22.15 63.85-22.65L63.85-22.65Q63.85-25.05 65.55-26.3L65.55-26.3Q66.65-27.1 68.3-27.1L68.3-27.1Q68.75-27.1 69.75-26.95 70.75-26.8 71.15-26.5L71.15-26.5Q70.1-26.45 69.52-25.8 68.95-25.15 68.95-24.05 68.95-22.95 69.95-22L69.95-22Q71.35-20.65 74.32-20.65 77.3-20.65 80.5-23.1L80.5-23.1ZM117.85-23.1L118.95-20.1Q117.8-18.85 115.15-17.88 112.5-16.9 110.92-16.9 109.34-16.9 108.59-17L108.59-17Q107.34-9.6 102.22-4.65 97.1 0.3 90.32 0.3 83.55 0.3 80.12-3.9 76.7-8.1 76.7-14.85L76.7-14.85Q76.7-19.25 78.05-23.43 79.4-27.6 81.77-30.85 84.15-34.1 87.75-36.08 91.35-38.05 95.27-38.05 99.2-38.05 101.72-36.27 104.25-34.5 104.25-31.35L104.25-31.35Q104.25-28.95 102.57-27.08 100.9-25.2 97.95-25.2L97.95-25.2Q96.4-25.2 95.2-25.98 94-26.75 94-28.45L94-28.45Q94-29.25 94.4-29.85 94.8-30.45 95.2-30.6L95.2-30.6 95.65-30.8Q95.65-28.8 97.25-28.8L97.25-28.8Q98-28.8 98.55-29.33 99.1-29.85 99.15-30.5 99.2-31.15 99.1-31.53 99-31.9 98.7-32.4L98.7-32.4Q98-33.65 95.75-33.65L95.75-33.65Q92.8-33.65 90.15-30.85 87.5-28.05 85.92-23.65 84.35-19.25 84.35-14.65L84.35-14.65Q84.35-10.8 85.6-7.8L85.6-7.8Q86.3-6.2 87.65-5.28 89-4.35 90.9-4.35L90.9-4.35Q94.05-4.35 96.52-7 99-9.65 100.17-13.4 101.35-17.15 101.35-21L101.35-21 101.35-21.6Q101.2-22.15 101.2-22.65L101.2-22.65Q101.2-25.05 102.9-26.3L102.9-26.3Q104-27.1 105.65-27.1L105.65-27.1Q106.09-27.1 107.09-26.95 108.09-26.8 108.5-26.5L108.5-26.5Q107.45-26.45 106.87-25.8 106.3-25.15 106.3-24.05 106.3-22.95 107.3-22L107.3-22Q108.7-20.65 111.67-20.65 114.65-20.65 117.85-23.1L117.85-23.1ZM147.29-10.75L147.29-10.75 148.89-8.3Q148.14-5.6 146.84-3.75 145.54-1.9 144.09-1.1L144.09-1.1Q141.54 0.3 139.24 0.3L139.24 0.3Q135.24 0.3 133.32-2.02 131.39-4.35 131.29-8.25L131.29-8.25Q131.14-14.55 130.54-16.1 129.94-17.65 127.79-17.85L127.79-17.85 128.14-21.6Q129.04-21.75 129.54-22 130.04-22.25 130.84-23L130.84-23Q132.54-24.5 133.34-30.05L133.34-30.05Q133.99-34.25 136.02-36.15 138.04-38.05 140.39-38.05 142.74-38.05 144.54-36.68 146.34-35.3 146.34-32.25L146.34-32.25Q146.34-28.2 143.42-25.25 140.49-22.3 135.29-19.9L135.29-19.9Q137.09-19.05 137.94-17.05 138.79-15.05 138.89-12.85 138.99-10.65 139.04-8.6L139.04-8.6Q139.24-3.8 141.89-3.8L141.89-3.8Q144.99-3.8 147.29-10.75ZM116.14 0.3L116.14 0.3Q113.49 0.3 111.89-1.3 110.29-2.9 110.29-5.4L110.29-5.4Q110.29-11.25 119.14-15.45L119.14-15.45Q119.49-18.4 120.14-23.8L120.14-23.8Q121.39-34.9 121.64-36.7L121.64-36.7Q123.69-38 125.92-38 128.14-38 129.29-37.75L129.29-37.75 125.59-9.5Q124.09 0.3 116.14 0.3ZM142.84-31.1Q142.84-31.85 142.42-32.25 141.99-32.65 141.59-32.65 141.19-32.65 140.97-32.55 140.74-32.45 140.57-32.23 140.39-32 140.29-31.78 140.19-31.55 140.07-31.1 139.94-30.65 139.87-30.33 139.79-30 139.64-29.4 139.49-28.8 139.24-27.78 138.99-26.75 138.64-25.7L138.64-25.7Q142.84-28.4 142.84-31.1L142.84-31.1ZM113.99-6.05L113.99-6.05Q113.99-4.25 115.69-4.25L115.69-4.25Q116.39-4.25 117.17-5.18 117.94-6.1 118.24-8.1L118.24-8.1 118.64-11.2Q113.99-8.5 113.99-6.05ZM168.79-25.2L165.04-25.2Q166.54-27.45 166.54-29.4 166.54-31.35 165.44-32.5 164.34-33.65 162.54-33.65 160.74-33.65 159.64-32.77 158.54-31.9 158.54-30.03 158.54-28.15 161.14-23.3 163.74-18.45 164.44-17.05L164.44-17.05Q166.34-13.25 166.34-9.7L166.34-9.7Q166.34-5.25 163.12-2.48 159.89 0.3 155.52 0.3 151.14 0.3 148.64-2.43 146.14-5.15 146.14-8.8L146.14-8.8Q146.14-15.55 154.49-19.95L154.49-19.95Q151.09-26.65 151.09-29.3L151.09-29.3Q151.09-33 154.07-35.58 157.04-38.15 161.37-38.15 165.69-38.15 167.99-35.95 170.29-33.75 170.29-30.35L170.29-30.35Q170.29-28.1 168.79-25.2L168.79-25.2ZM151.94-5.7Q153.29-4.25 155.22-4.25 157.14-4.25 158.22-5.38 159.29-6.5 159.29-8.7L159.29-8.7Q159.29-10.7 157.74-13.6L157.74-13.6Q157.54-14 156.99-15.08 156.44-16.15 156.19-16.6L156.19-16.6Q150.59-13.7 150.59-9.3L150.59-9.3Q150.59-7.05 151.94-5.7L151.94-5.7ZM181.54-32.1Q180.49-29.8 178.44-28.3 176.39-26.8 173.99-26.8 171.59-26.8 170.06-28.2 168.54-29.6 168.54-32.35 168.54-35.1 170.99-36.58 173.44-38.05 176.74-38.05L176.74-38.05 196.59-38.05Q196.74-37.35 196.74-36.7L196.74-36.7Q196.74-35 195.64-33.55 194.54-32.1 192.29-32.1L192.29-32.1Q192.19-32.1 192.14-32.1L192.14-32.1 181.54-32.1ZM178.29-32.1L175.04-32.1Q173.19-32.1 173.19-30.8L173.19-30.8Q173.19-29.75 174.79-29.75L174.79-29.75Q175.54-29.75 176.56-30.4 177.59-31.05 178.29-32.1L178.29-32.1ZM185.39-9.6Q184.14 0.2 176.54 0.2L176.54 0.2Q173.84 0.2 172.21-1.45 170.59-3.1 170.59-5.6L170.59-5.6Q170.59-11.45 179.49-15.6L179.49-15.6 181.24-28.9Q183.29-30.2 185.99-30.2L185.99-30.2Q187.24-30.2 188.39-29.95L188.39-29.95 185.39-9.6ZM178.94-11.35Q174.29-8.65 174.29-6.15L174.29-6.15Q174.29-4.35 176.04-4.35L176.04-4.35Q178.04-4.35 178.54-8.2L178.54-8.2 178.94-11.35ZM233.89-23.1L234.99-20.1Q233.84-18.85 231.19-17.88 228.54-16.9 226.96-16.9 225.39-16.9 224.64-17L224.64-17Q223.39-9.6 218.26-4.65 213.14 0.3 206.36 0.3 199.59 0.3 196.16-3.9 192.74-8.1 192.74-14.85L192.74-14.85Q192.74-19.25 194.09-23.43 195.44-27.6 197.81-30.85 200.19-34.1 203.79-36.08 207.39-38.05 211.31-38.05 215.24-38.05 217.76-36.27 220.29-34.5 220.29-31.35L220.29-31.35Q220.29-28.95 218.61-27.08 216.94-25.2 213.99-25.2L213.99-25.2Q212.44-25.2 211.24-25.98 210.04-26.75 210.04-28.45L210.04-28.45Q210.04-29.25 210.44-29.85 210.84-30.45 211.24-30.6L211.24-30.6 211.69-30.8Q211.69-28.8 213.29-28.8L213.29-28.8Q214.04-28.8 214.59-29.33 215.14-29.85 215.19-30.5 215.24-31.15 215.14-31.53 215.04-31.9 214.74-32.4L214.74-32.4Q214.04-33.65 211.79-33.65L211.79-33.65Q208.84-33.65 206.19-30.85 203.54-28.05 201.96-23.65 200.39-19.25 200.39-14.65L200.39-14.65Q200.39-10.8 201.64-7.8L201.64-7.8Q202.34-6.2 203.69-5.28 205.04-4.35 206.94-4.35L206.94-4.35Q210.09-4.35 212.56-7 215.04-9.65 216.21-13.4 217.39-17.15 217.39-21L217.39-21 217.39-21.6Q217.24-22.15 217.24-22.65L217.24-22.65Q217.24-25.05 218.94-26.3L218.94-26.3Q220.04-27.1 221.69-27.1L221.69-27.1Q222.14-27.1 223.14-26.95 224.14-26.8 224.54-26.5L224.54-26.5Q223.49-26.45 222.91-25.8 222.34-25.15 222.34-24.05 222.34-22.95 223.34-22L223.34-22Q224.74-20.65 227.71-20.65 230.69-20.65 233.89-23.1L233.89-23.1ZM263.43-10.75L263.43-10.75 265.03-8.3Q262.58 0.3 254.88 0.3L254.88 0.3Q253.13 0.3 251.86-0.35 250.58-1 249.93-1.9 249.28-2.8 248.88-4.2L248.88-4.2Q248.33-6.3 248.31-9.75 248.28-13.2 247.46-14.5 246.63-15.8 244.33-15.95L244.33-15.95 244.88-20.2Q244.98-20.2 245.03-20.2L245.03-20.2Q247.93-20.2 249.83-21.85L249.83-21.85Q251.88-23.7 251.88-26.6 251.88-29.5 249.16-31.5 246.43-33.5 242.13-33.5L242.13-33.5Q236.58-33.5 233.58-30.75L233.58-30.75Q231.98-29.25 231.98-27.15L231.98-27.15Q231.98-24.5 236.03-23.95L236.03-23.95 235.33-20.2Q232.28-20.35 229.93-22.25 227.58-24.15 227.58-27.15L227.58-27.15Q227.58-32.4 231.98-35.23 236.38-38.05 243.13-38.05L243.13-38.05Q247.48-38.05 250.78-37L250.78-37Q256.43-35.1 258.28-30.4L258.28-30.4Q258.88-28.75 258.88-27.73 258.88-26.7 258.88-26.35L258.88-26.35Q258.68-23.6 256.86-20.95 255.03-18.3 251.38-17.3L251.38-17.3Q253.58-16.85 254.38-15.4 255.18-13.95 255.23-11L255.23-11Q255.28-5.95 255.71-4.88 256.13-3.8 257.48-3.8L257.48-3.8Q261.13-3.8 263.43-10.75ZM232.78 0.3L232.78 0.3Q230.13 0.3 228.53-1.3 226.93-2.9 226.93-5.25L226.93-5.25Q226.93-11.35 235.88-15.45L235.88-15.45Q237.68-29.45 237.73-29.8L237.73-29.8Q239.83-31.15 242.48-31.15L242.48-31.15Q243.58-31.15 244.98-30.85L244.98-30.85 241.83-9.5Q240.33 0.3 232.78 0.3ZM230.63-5.85L230.63-5.85Q230.63-4.25 232.33-4.25L232.33-4.25Q234.33-4.25 234.88-7.85L234.88-7.85 235.33-11.25Q230.63-8.5 230.63-5.85ZM271.23-17.45L271.23-17.45Q268.33-15.4 268.33-11.35L268.33-11.35Q268.33-8.8 270.16-6.55 271.98-4.3 276.33-4.3 280.68-4.3 284.58-7.25 288.48-10.2 290.48-13.7L290.48-13.7 292.18-10.65Q285.73 0.3 274.23 0.3L274.23 0.3Q268.53 0.3 264.58-2.78 260.63-5.85 260.63-10L260.63-10Q260.63-17.25 267.08-20.5L267.08-20.5Q264.93-23.15 264.93-26.7L264.93-26.7Q264.93-31.35 268.96-34.7 272.98-38.05 278.28-38.05 283.58-38.05 286.46-35.35 289.33-32.65 289.33-28.25L289.33-28.25 284.58-28.25Q284.63-30.95 283.16-32.33 281.68-33.7 279.06-33.7 276.43-33.7 274.33-31.8L274.33-31.8Q271.98-29.75 271.98-27 271.98-24.25 273.48-22.25L273.48-22.25Q278.48-22.85 281.08-21.6L281.08-21.6Q282.68-20.85 282.68-19.23 282.68-17.6 280.86-16.95 279.03-16.3 276.48-16.3 273.93-16.3 271.23-17.45ZM311.08 0.3L311.08 0.3Q303.33 0.3 299.7-3.65 296.08-7.6 296.08-14.08 296.08-20.55 298.3-25.88 300.53-31.2 304.93-34.63 309.33-38.05 314.45-38.05 319.58-38.05 322.5-35.58 325.43-33.1 325.43-28.93 325.43-24.75 322.85-22 320.28-19.25 316.83-19.25 313.38-19.25 311.48-20.78 309.58-22.3 309.58-24.03 309.58-25.75 310.95-26.73 312.33-27.7 314.98-27.7L314.98-27.7Q314.33-27.05 314.33-25.98 314.33-24.9 314.98-24.1 315.63-23.3 316.98-23.3 318.33-23.3 319.68-24.73 321.03-26.15 321.03-28.5 321.03-30.85 319.6-32.25 318.18-33.65 315.58-33.65L315.58-33.65Q312.18-33.65 309.4-30.9 306.63-28.15 305.18-23.9 303.73-19.65 303.73-14.95L303.73-14.95Q303.73-10.9 305.48-7.8L305.48-7.8Q306.38-6.2 308.15-5.25 309.93-4.3 312.33-4.3L312.33-4.3Q316.43-4.3 320.23-6.93 324.03-9.55 326.63-13.7L326.63-13.7 328.33-10.65Q325.38-5.85 320.93-2.78 316.48 0.3 311.08 0.3ZM356.32-37.45L356.32-37.7Q357.37-38.1 359.27-38.1 361.17-38.1 362.67-37.85L362.67-37.85Q361.12-26.35 360.25-17.03 359.37-7.7 359.3-7.2 359.22-6.7 359.22-6.3L359.22-6.3Q359.27-5 360.47-5L360.47-5Q363.47-5 368.82-11.9L368.82-11.9Q369.77-9.25 369.92-8.35L369.92-8.35Q367.52-4.55 364.15-2.13 360.77 0.3 357.77 0.3 354.77 0.3 353.62-1.25 352.47-2.8 352.47-4.7L352.47-4.7Q352.47-5.15 352.6-6.45 352.72-7.75 354.57-22.65L354.57-22.65 346.37-3.7 342.12-3.7 339.67-22.35 336.17-6.85Q335.32-3.15 333.4-1.4 331.47 0.35 329.17 0.35 326.87 0.35 325.42-1L325.42-1Q323.87-2.45 323.87-5.1L323.87-5.1Q323.87-10.4 332.07-14.15L332.07-14.15Q336.52-35.5 336.87-37.8L336.87-37.8Q338.07-38.1 340.1-38.1 342.12-38.1 342.87-38L342.87-38 343.22-38 346.32-14.75 356.32-37.45ZM327.42-5.95L327.42-5.95Q327.42-4.35 328.67-4.35L328.67-4.35Q329.52-4.35 330.07-5.7L330.07-5.7Q330.77-7.35 331.22-10.05L331.22-10.05Q327.42-7.9 327.42-5.95ZM388.47-25.2L384.72-25.2Q386.22-27.45 386.22-29.4 386.22-31.35 385.12-32.5 384.02-33.65 382.22-33.65 380.42-33.65 379.32-32.77 378.22-31.9 378.22-30.03 378.22-28.15 380.82-23.3 383.42-18.45 384.12-17.05L384.12-17.05Q386.02-13.25 386.02-9.7L386.02-9.7Q386.02-5.25 382.8-2.48 379.57 0.3 375.2 0.3 370.82 0.3 368.32-2.43 365.82-5.15 365.82-8.8L365.82-8.8Q365.82-15.55 374.17-19.95L374.17-19.95Q370.77-26.65 370.77-29.3L370.77-29.3Q370.77-33 373.75-35.58 376.72-38.15 381.05-38.15 385.37-38.15 387.67-35.95 389.97-33.75 389.97-30.35L389.97-30.35Q389.97-28.1 388.47-25.2L388.47-25.2ZM371.62-5.7Q372.97-4.25 374.9-4.25 376.82-4.25 377.9-5.38 378.97-6.5 378.97-8.7L378.97-8.7Q378.97-10.7 377.42-13.6L377.42-13.6Q377.22-14 376.67-15.08 376.12-16.15 375.87-16.6L375.87-16.6Q370.27-13.7 370.27-9.3L370.27-9.3Q370.27-7.05 371.62-5.7L371.62-5.7Z" opacity="1" transform="matrix(1,0,0,1,0,0)" fill="#000000" class="undefined-text-0" data-fill-palette-color="primary" id="text-0"></path></svg></g></svg></g></svg></g></svg></g><g transform="matrix(1,0,0,1,164.91125990557308,0)"><svg viewBox="0 0 65.6974801888539 54.18237033985583" height="54.18237033985583" width="65.6974801888539"><g><svg xmlns="http://www.w3.org/2000/svg" xmlns:xlink="http://www.w3.org/1999/xlink" version="1.1" x="8" y="0" viewBox="8.724258422851562 4.999500274658203 82.5508041381836 90.00050354003906" enable-background="new 0 0 100 100" xml:space="preserve" height="54.18237033985583" width="49.6974801888539" class="icon-icon-0" data-fill-palette-color="accent" id="icon-0"><path fill="#000000" d="M91.244 32.965c-0.005-0.022-0.014-0.043-0.021-0.064-0.018-0.058-0.04-0.112-0.067-0.165-0.011-0.021-0.021-0.04-0.033-0.061-0.04-0.063-0.084-0.124-0.137-0.178-0.003-0.004-0.005-0.007-0.008-0.01-0.057-0.057-0.12-0.104-0.188-0.145-0.008-0.006-0.015-0.013-0.022-0.018L43.674 5.136c-0.314-0.182-0.702-0.182-1.018 0L9.362 24.369c-0.008 0.005-0.015 0.013-0.023 0.018-0.068 0.042-0.132 0.089-0.188 0.145-0.002 0.003-0.005 0.007-0.007 0.01-0.053 0.054-0.098 0.115-0.137 0.18-0.012 0.02-0.022 0.039-0.033 0.06-0.027 0.053-0.05 0.107-0.068 0.165-0.007 0.022-0.014 0.042-0.02 0.064-0.019 0.078-0.032 0.158-0.032 0.241v11.216c0 0.362 0.193 0.697 0.506 0.88l4.008 2.314-2.25 1.3-0.014 0.008c-0.088 0.051-0.164 0.117-0.231 0.19-0.006 0.007-0.016 0.011-0.021 0.018-1.667 1.924-3.811 6.725 0 11.124 0.007 0.008 0.017 0.013 0.024 0.02 0.065 0.071 0.139 0.137 0.227 0.188 0 0 0.001 0.001 0.001 0.002l2.412 1.393-3.034 1.751c-0.306 0.176-0.494 0.503-0.494 0.855s0.188 0.679 0.494 0.855l3.262 1.883-3.261 1.883c-0.306 0.177-0.494 0.502-0.494 0.855 0 0.353 0.188 0.679 0.493 0.855l3.264 1.884-3.263 1.884c-0.306 0.177-0.494 0.502-0.494 0.855 0 0.353 0.188 0.679 0.494 0.855l45.981 26.548C56.616 94.955 56.786 95 56.956 95c0.171 0 0.341-0.045 0.494-0.133l32.514-18.771c0.306-0.176 0.494-0.502 0.494-0.855 0-0.353-0.188-0.679-0.494-0.855l-3.263-1.884 3.263-1.884c0.306-0.177 0.494-0.502 0.494-0.855 0-0.353-0.188-0.679-0.494-0.855l-3.262-1.883 3.262-1.883c0.306-0.176 0.494-0.502 0.494-0.854 0-0.354-0.188-0.68-0.494-0.855l-2.413-1.393 3.035-1.753c0.306-0.177 0.494-0.503 0.494-0.855s-0.188-0.679-0.494-0.855L89.938 58.2l0.646-0.372c0.307-0.177 0.494-0.503 0.495-0.855 0-0.354-0.188-0.68-0.494-0.856l-0.646-0.372 0.646-0.373c0.306-0.177 0.494-0.503 0.494-0.855s-0.188-0.679-0.494-0.855l-0.647-0.374 0.646-0.373c0.307-0.177 0.495-0.503 0.495-0.856 0-0.353-0.188-0.679-0.494-0.854l-0.648-0.374 0.648-0.375c0.306-0.177 0.494-0.502 0.494-0.855 0-0.353-0.188-0.679-0.494-0.855l-2.879-1.662 3.061-1.767c0.01-0.006 0.018-0.014 0.027-0.02 0.031-0.02 0.06-0.041 0.087-0.063 0.025-0.02 0.051-0.038 0.073-0.061 0.024-0.021 0.046-0.047 0.067-0.071 0.022-0.025 0.044-0.05 0.063-0.076 0.019-0.027 0.034-0.056 0.051-0.084 0.016-0.028 0.032-0.056 0.046-0.084 0.014-0.031 0.024-0.062 0.035-0.096 0.01-0.03 0.021-0.061 0.028-0.092 0.008-0.03 0.012-0.062 0.016-0.094 0.006-0.036 0.011-0.07 0.012-0.107 0-0.012 0.003-0.022 0.003-0.033V33.206C91.276 33.123 91.264 33.042 91.244 32.965zM88.223 33.206l-13.694 7.909L52.531 28.608c1.333 0.193 2.989 0.377 4.49 0.377 0 0 0 0 0.001 0 2.231 0 3.562-0.409 4.066-1.251 0.33-0.551 0.287-1.225-0.128-2.001-0.712-1.34-1.747-2.042-3.073-2.104l6.874-3.969L88.223 33.206zM33.489 37.712l16.413-9.473 23.645 13.443-16.591 9.581L33.489 37.712zM55.938 53.027v8.864L32.725 48.49l0.04-8.844L55.938 53.027zM49.723 26.366c-2.78-3.772-6.804-10.133-5.757-12.262 0.083-0.168 0.336-0.681 1.545-0.681l0.16 0.003c1.429 0.053 2.479 0.49 3.212 1.338 1.873 2.168 1.374 6.724 0.933 10.743C49.784 25.796 49.752 26.081 49.723 26.366zM57.975 53.027l16.596-9.585-0.041 8.894-16.555 9.556V53.027zM51.403 27.438c0.079-0.05 0.159-0.1 0.239-0.151 0.41-0.259 0.829-0.522 1.258-0.783 0.41-0.26 0.851-0.501 1.265-0.726 1.49-0.807 2.612-1.182 3.533-1.182 1.058 0 1.819 0.507 2.399 1.597 0.242 0.453 0.293 0.802 0.152 1.037-0.141 0.233-0.735 0.775-3.228 0.775h-0.001C55.069 28.006 52.78 27.674 51.403 27.438zM43.166 7.193L63.78 19.095l-10.079 5.822L53.7 24.918c-0.431 0.232-0.886 0.482-1.315 0.754-0.002 0.001-0.004 0.002-0.005 0.003l-1.705 0.982c0.037-0.343 0.075-0.69 0.113-1.042 0.463-4.219 0.987-9-1.165-11.49-0.906-1.05-2.224-1.614-3.916-1.676-1.327-0.056-2.196 0.365-2.619 1.224-1.336 2.715 3.011 9.346 5.369 12.619L29.128 15.303 43.166 7.193zM28.146 15.87l20.771 11.81-16.406 9.467L11.942 25.269l-0.034-0.019L28.146 15.87zM11.945 36.495l-1.056-0.614v-8.866l20.897 12.066-0.039 8.846L11.945 36.495zM12.239 50.884c-2.689-3.228-1.221-6.42-0.366-7.761l26.422 15.256 17.836 10.298c-0.877 1.39-1.638 3.445-1.367 5.693 0.001 0.062 0.008 0.122 0.021 0.184 0.049 0.336 0.121 0.677 0.221 1.021L12.239 50.884zM87.494 75.24L56.956 92.871 13 67.493l-0.05-0.028 2.77-1.6 40.743 23.523c0.153 0.088 0.323 0.133 0.493 0.133 0.171 0 0.341-0.045 0.494-0.133l27.275-15.747L87.494 75.24zM87.494 69.762L56.956 87.393 13 62.016l-0.05-0.029 2.769-1.599 40.744 23.523c0.153 0.088 0.323 0.133 0.493 0.133 0.171-0.001 0.341-0.045 0.494-0.133l27.277-15.747L87.494 69.762zM56.956 81.915L13 56.537l-0.049-0.027 2.54-1.468 41.593 24.015c0.069 0.039 0.142 0.066 0.215 0.089 0.009 0.002 0.017 0.008 0.026 0.011 0.083 0.021 0.168 0.033 0.252 0.033 0.004 0 0.008-0.001 0.013 0 0.084 0 0.164-0.014 0.241-0.033l0.001-0.001c0.119-0.03 0.23-0.08 0.327-0.149l27.416-15.828 1.919 1.108L56.956 81.915zM56.781 75.041l31.182-18.402 0.15 0.15L56.81 75.219C56.8 75.179 56.79 75.141 56.781 75.041zM57.93 77.275l-0.092-0.141-0.001-0.002 30.128-17.779 0.15 0.149L57.93 77.275zM56.659 73.047l0.03-0.276 31.275-18.4 0.15 0.15L56.659 73.047zM57.977 69.803l0.185-0.309 29.802-17.588 0.152 0.15L57.977 69.803zM88.116 49.598L57.578 67.23l-43.957-25.38-0.047-0.027 1.769-1.021 41.104 23.735c0.013 0.007 0.026 0.01 0.039 0.016 0.054 0.028 0.109 0.051 0.168 0.069 0.021 0.007 0.042 0.015 0.064 0.02 0.076 0.019 0.155 0.031 0.237 0.031 0.083 0 0.162-0.013 0.239-0.031 0.021-0.005 0.041-0.013 0.063-0.02 0.059-0.019 0.114-0.041 0.168-0.069 0.013-0.007 0.026-0.009 0.039-0.016l28.266-16.316L88.116 49.598zM89.24 43.845L75.511 51.77l0.041-8.894L89.24 34.97V43.845z" data-fill-palette-color="accent"></path></svg></g></svg></g><g><rect width="164.91125990557305" height="3.5356165509800217" y="49.64675378887581" x="230.608740094427" fill="#000000" data-fill-palette-color="accent"></rect><rect width="164.91125990557305" height="3.5356165509800217" y="49.64675378887581" x="2.842170943040401e-14" fill="#000000" data-fill-palette-color="accent"></rect><rect width="164.91125990557305" height="3.5356165509800217" y="42.575520686915766" x="230.608740094427" fill="#000000" data-fill-palette-color="accent"></rect><rect width="164.91125990557305" height="3.5356165509800217" y="42.575520686915766" x="2.842170943040401e-14" fill="#000000" data-fill-palette-color="accent"></rect></g></svg></g></svg></g></svg></g><defs></defs></svg><rect width="395.52" height="247.2" fill="none" stroke="none" visibility="hidden"></rect></g></svg></g></svg>